<svg width="21px" height="21px" viewBox="0 0 21 21" version="1.1" xmlns="http://www.w3.org/2000/svg" xmlns:xlink="http://www.w3.org/1999/xlink">
    <g id="Impact" stroke="none" stroke-width="1" fill="none" fill-rule="evenodd" transform="translate(-51.000000, -768.000000)">
        <g id="Group-4" transform="translate(0.000000, 710.000000)" class="icon-social__fill" fill="#8f897e">
            <g id="Group" transform="translate(50.000000, 51.000000)">
                <g id="Group-5">
                    <path d="M14.7143021,17.4285612 C14.7143021,15.5401661 13.1741217,13.9999857 11.2857265,13.9999857 C9.39733144,13.9999857 7.85715103,15.5401661 7.85715103,17.4285612 C7.85715103,19.3169563 9.39733144,20.8571367 11.2857265,20.8571367 C13.1741217,20.8571367 14.7143021,19.3169563 14.7143021,17.4285612 Z M16.5625186,17.4285612 C16.5625186,20.3482075 14.2053729,22.7053532 11.2857265,22.7053532 C8.36608021,22.7053532 6.00893454,20.3482075 6.00893454,17.4285612 C6.00893454,14.5089149 8.36608021,12.1517692 11.2857265,12.1517692 C14.2053729,12.1517692 16.5625186,14.5089149 16.5625186,17.4285612 Z M18.0089488,11.9374832 C18.0089488,12.6205198 17.4598411,13.1696276 16.7768045,13.1696276 C16.093768,13.1696276 15.5446602,12.6205198 15.5446602,11.9374832 C15.5446602,11.2544467 16.093768,10.7053389 16.7768045,10.7053389 C17.4598411,10.7053389 18.0089488,11.2544467 18.0089488,11.9374832 Z M11.2857265,8.99105115 C9.78572476,8.99105115 6.57143521,8.87051529 5.21875503,9.40623022 C4.75000447,9.59373044 4.40178977,9.82140929 4.0401822,10.1830169 C3.67857462,10.5446244 3.45089578,10.8928391 3.26339556,11.3615897 C2.72768063,12.7142699 2.84821649,15.9285594 2.84821649,17.4285612 C2.84821649,18.928563 2.72768063,22.1428525 3.26339556,23.4955327 C3.45089578,23.9642833 3.67857462,24.312498 4.0401822,24.6741056 C4.40178977,25.0357131 4.75000447,25.263392 5.21875503,25.4508922 C6.57143521,25.9866071 9.78572476,25.8660713 11.2857265,25.8660713 C12.7857283,25.8660713 16.0000179,25.9866071 17.3526981,25.4508922 C17.8214486,25.263392 18.1696633,25.0357131 18.5312709,24.6741056 C18.8928785,24.312498 19.1205573,23.9642833 19.3080575,23.4955327 C19.8437725,22.1428525 19.7232366,18.928563 19.7232366,17.4285612 C19.7232366,15.9285594 19.8437725,12.7142699 19.3080575,11.3615897 C19.1205573,10.8928391 18.8928785,10.5446244 18.5312709,10.1830169 C18.1696633,9.82140929 17.8214486,9.59373044 17.3526981,9.40623022 C16.0000179,8.87051529 12.7857283,8.99105115 11.2857265,8.99105115 Z M21.5714531,17.4285612 C21.5714531,18.8482058 21.584846,20.2544574 21.5044887,21.674102 C21.4241315,23.3214254 21.049131,24.7812485 19.8437725,25.9866071 C18.6384139,27.1919657 17.1785907,27.5669662 15.5312673,27.6473234 C14.1116228,27.7276806 12.7053711,27.7142878 11.2857265,27.7142878 C9.866082,27.7142878 8.45983032,27.7276806 7.04018577,27.6473234 C5.39286238,27.5669662 3.93303921,27.1919657 2.72768063,25.9866071 C1.52232205,24.7812485 1.1473216,23.3214254 1.06696437,21.674102 C0.986607127,20.2544574 1,18.8482058 1,17.4285612 C1,16.0089167 0.986607127,14.602665 1.06696437,13.1830204 C1.1473216,11.535697 1.52232205,10.0758739 2.72768063,8.87051529 C3.93303921,7.66515671 5.39286238,7.29015627 7.04018577,7.20979903 C8.45983032,7.12944179 9.866082,7.14283466 11.2857265,7.14283466 C12.7053711,7.14283466 14.1116228,7.12944179 15.5312673,7.20979903 C17.1785907,7.29015627 18.6384139,7.66515671 19.8437725,8.87051529 C21.049131,10.0758739 21.4241315,11.535697 21.5044887,13.1830204 C21.584846,14.602665 21.5714531,16.0089167 21.5714531,17.4285612 Z" id="Social-Instagram"></path>
                </g>
            </g>
        </g>
    </g>
</svg>